PathFileType	3	(X/Y/Z)	results
DataRate	CameraRate	NumFrames	NumMarkers	Units	OrigDataRate	OrigDataStartFrame	OrigNumFrames
30.0	30.0	4	85	mm	30.0	90	179
Frame#	Time	head			nose			neck			shoulder_r			elbow_r			wrist_r			shoulder_l			elbow_l			wrist_l			hip_r			knee_r			ankle_r			hip_l			knee_l			ankle_l			heel_r			heel_l			mtoe_r			ltoe_r			mtoe_l			ltoe_l			asis_l			asis_r			psi_r			psi_l			mhnd_r			lhnd_r			mhnd_l			lhnd_l			l_lat_knee			r_med_wrist			l_lat_ankle			r_med_ankle			r_lat_knee			xiphoid			l_med_ankle			r_med_knee			l_med_elbow			navel			r_lat_elbow			r_lat_wrist			l_med_wrist			l_lat_elbow			l_med_knee			r_med_elbow			r_lat_ankle			l_lat_wrist			chin			T10			r_eye			l_eye			l_ear			r_ear			spinal_cord_8			spinal_cord_12			spinal_cord_27			spinal_cord_33			up_arm_r_0			up_arm_r_5			up_arm_l_0			up_arm_l_5			front_torso_11			front_torso_7			front_torso_4			front_torso_1			front_torso_10			thigh_r_2			thigh_r_3			thigh_l_1			thigh_l_5			shank_l_0			shank_l_4			shank_r_1			shank_r_2			foot_r_1			foot_r_3			foot_r_5			foot_r_6			foot_r_7			foot_l_1			foot_l_7			foot_l_0			foot_l_4			foot_l_5			foot_l_6			
		X1	Y1	Z1	X2	Y2	Z2	X3	Y3	Z3	X4	Y4	Z4	X5	Y5	Z5	X6	Y6	Z6	X7	Y7	Z7	X8	Y8	Z8	X9	Y9	Z9	X10	Y10	Z10	X11	Y11	Z11	X12	Y12	Z12	X13	Y13	Z13	X14	Y14	Z14	X15	Y15	Z15	X16	Y16	Z16	X17	Y17	Z17	X18	Y18	Z18	X19	Y19	Z19	X20	Y20	Z20	X21	Y21	Z21	X22	Y22	Z22	X23	Y23	Z23	X24	Y24	Z24	X25	Y25	Z25	X26	Y26	Z26	X27	Y27	Z27	X28	Y28	Z28	X29	Y29	Z29	X30	Y30	Z30	X31	Y31	Z31	X32	Y32	Z32	X33	Y33	Z33	X34	Y34	Z34	X35	Y35	Z35	X36	Y36	Z36	X37	Y37	Z37	X38	Y38	Z38	X39	Y39	Z39	X40	Y40	Z40	X41	Y41	Z41	X42	Y42	Z42	X43	Y43	Z43	X44	Y44	Z44	X45	Y45	Z45	X46	Y46	Z46	X47	Y47	Z47	X48	Y48	Z48	X49	Y49	Z49	X50	Y50	Z50	X51	Y51	Z51	X52	Y52	Z52	X53	Y53	Z53	X54	Y54	Z54	X55	Y55	Z55	X56	Y56	Z56	X57	Y57	Z57	X58	Y58	Z58	X59	Y59	Z59	X60	Y60	Z60	X61	Y61	Z61	X62	Y62	Z62	X63	Y63	Z63	X64	Y64	Z64	X65	Y65	Z65	X66	Y66	Z66	X67	Y67	Z67	X68	Y68	Z68	X69	Y69	Z69	X70	Y70	Z70	X71	Y71	Z71	X72	Y72	Z72	X73	Y73	Z73	X74	Y74	Z74	X75	Y75	Z75	X76	Y76	Z76	X77	Y77	Z77	X78	Y78	Z78	X79	Y79	Z79	X80	Y80	Z80	X81	Y81	Z81	X82	Y82	Z82	X83	Y83	Z83	X84	Y84	Z84	X85	Y85	Z85	
90	3.0	-2641.006341288611	1391.9070221396796	-634.0509059217275	-2618.489505423364	1175.3422703151678	-589.2874392279339	-2849.7408630783557	1105.9070065995127	-607.550884514486	-2845.0443856531974	1108.5170371306203	-432.90515062996514	-2984.116424737331	944.0375718641066	-303.94797452680405	-2858.3248140318274	792.4898796006014	-373.4905400211147	-2872.07559323851	1068.2716528985513	-732.1500458242509	-3047.2391575168162	919.1825676994123	-809.5268569062592	-2900.1727008807793	776.9822140864011	-768.354585352539	-3154.003851558599	756.4706988263953	-494.61565831874384	-3096.0481548188063	371.63823008620415	-475.755437530587	-3467.1539851232715	390.3981605364363	-526.6993171325448	-3173.8778029648606	748.147366890788	-655.6175805932953	-2985.6642392437952	404.24116019577514	-607.2460757715555	-3226.3103075423796	126.40440986821233	-517.1159488360902	-3522.84384757933	410.0911045861607	-541.5653553674742	-3281.478173686163	77.39002255938404	-504.59819857400487	-3540.3681729858627	213.84586731459234	-510.72489355162554	-3548.33024416665	276.466757467547	-463.2206171082654	-3077.777642229896	28.451965723389968	-518.1384322873987	-3140.209809428807	21.675548860998422	-583.727805991166	-3115.848956605873	754.7931066659871	-699.536094703291	-3090.490080104936	767.405096439094	-463.35560687478966	-3166.576838592136	859.8695815570534	-539.4441670124988	-3173.3735995368775	851.8670580670052	-619.9369785105096	-2837.9039084056526	723.0088227038837	-385.19767973945585	-2792.832537830782	744.535082117249	-404.5428074184763	-2870.6323922184833	707.2203128184037	-759.679097103416	-2825.8400773101894	733.8975291061831	-747.943596262009	-2986.309062528254	402.8573396932602	-655.3795346805872	-2875.5036089100113	781.6969674735341	-356.78843477805094	-3239.942870945233	103.22332074504509	-563.5284416705025	-3472.512564348256	375.83338718600123	-560.2916968093881	-3106.1922320097738	376.0969545264674	-435.7654100872875	-2886.3401939021014	925.6099471074822	-582.7109898172237	-3222.3488560954515	118.49978320739868	-484.0713279789017	-3090.120499506284	378.57638267268885	-515.9590532314343	-3059.1147170272857	931.3465956699976	-780.8102973760726	-3011.7500484016527	758.1860613912132	-566.7310883197895	-2955.7515558818004	949.4411782110848	-278.6589433699029	-2851.8988909332365	814.8787588838052	-390.73052482679753	-2920.0692963854935	764.5147678323026	-785.4287113823626	-3026.562207210937	926.771429806946	-839.1740511964152	-2982.854412794071	423.23154783525365	-562.7900031431219	-3004.244229752969	947.2044186745784	-332.8748605656634	-3490.7883946654065	391.0797954974441	-483.8939392283176	-2887.20636298794	801.4129170239372	-764.3698171910445	-2674.900170130644	1117.6656561707257	-576.3633268481886	-3021.0381973997687	1053.6414736151157	-604.857628738422	-2602.807373168537	1210.9775582660022	-561.7510984772251	-2603.0073835459407	1195.3946974974685	-632.2089977960283	-2698.586492260966	1229.9996585824344	-695.6878596342565	-2702.0248092266547	1267.161025746008	-520.602140194344	-2848.3364888322835	1178.555238751977	-617.5764229906102	-2958.646356701223	1125.516184778262	-614.8607982845668	-3104.2016510162966	936.0917108837309	-580.0308266893103	-3017.5940629224588	1038.6945251226837	-602.800793920397	-2883.1221021385513	995.9341875304011	-376.17668147010403	-2944.0768139146353	1039.2897348228973	-336.2268883039324	-2898.617157121538	1041.0737715425141	-773.174945503917	-3023.3394034043527	977.3664258045303	-763.6204007321347	-3024.637666808991	808.7335108952727	-527.480774497424	-2918.278972230842	844.2552624043409	-571.6362174653475	-2851.8790805885187	946.337935517018	-646.7636058148407	-2996.815999153254	815.1469163208072	-641.0178699893265	-2825.2183616747534	989.9046758859711	-512.3078135092538	-3121.0757680790985	553.9873545483158	-501.8103288684379	-3133.983744806272	521.4232018195881	-409.1532155013656	-3051.601617920998	511.54896799177294	-575.3333067217944	-3098.324957524105	656.3612375355656	-739.2836975728485	-3162.714850531979	168.94254832857152	-600.3657947625296	-3073.779374949391	307.5455731877019	-526.4961376240498	-3262.525254158345	384.9283283329058	-441.8207078846362	-3284.889680086322	373.89932230178533	-540.3733131356943	-3548.3048756128724	233.43360084361714	-494.16198075015063	-3548.466937437357	251.73062826555747	-475.59772204883393	-3525.653441233477	283.52059402162837	-532.587936281147	-3523.008576578927	300.71809403723404	-501.94851775359064	-3537.5189895129397	316.44481819002715	-478.4253216636935	-3109.5133227128504	18.468209518639867	-559.1900802935485	-3199.8084600573625	66.73083763089917	-568.7154657374742	-3118.401966935643	18.855627289952047	-572.0090234974501	-3099.1788334726775	18.104146578042656	-543.374304807643	-3149.156302986822	44.278218464890756	-545.5981736425844	-3169.6033077772386	64.13069780484223	-516.0183800279975	
91	3.033333333333333	-2553.928975384963	1403.7247636199875	-619.451043399555	-2526.72447747147	1189.164984450461	-568.1179737792802	-2756.9360429663216	1113.152780824445	-600.1983684463711	-2780.1641328515843	1128.340650888898	-419.28148254083845	-2960.0559397197303	995.0905376502894	-305.6688733749083	-2876.997910204797	805.5977923654326	-334.309124548985	-2749.0329865141657	1052.1757065568522	-731.6043627812685	-2857.8735260034355	853.054191368968	-817.6355177333155	-2680.690217577796	844.8701986837121	-707.7094668667871	-3062.444752769159	755.1369838336153	-486.40566864559247	-2894.1607827331018	398.45495311987975	-459.222190480146	-3268.6839769572734	391.74373310167164	-478.0394075792062	-3071.324809036828	754.9774600056749	-648.5999654871918	-2946.972651451239	383.3093200748732	-605.4764412671578	-3222.291051384039	136.64334487990607	-524.3413370205421	-3329.250552273583	404.90320615095544	-488.96713308261934	-3282.561361378426	92.49212762446504	-513.738170194276	-3304.7652048383193	216.70876642641034	-427.6992798846986	-3312.8756554374486	285.0546696086198	-388.91159046227165	-3081.627872711602	31.704195029007135	-515.3929313284355	-3141.452494780034	24.950610108530753	-583.371346686469	-3010.4067272393218	763.3475166159642	-688.0876624445664	-3001.164634489972	764.0125526876499	-450.3956365308406	-3071.481202215901	860.7297253505958	-526.7481978787052	-3072.8055928792437	856.7892426676448	-607.8163644424017	-2876.5926078725	732.2426962080831	-333.5652346187797	-2825.2927744508074	737.1328343163455	-348.1753644927801	-2623.797521624001	812.2195940581431	-668.8279035566011	-2605.9841904130617	862.3700718456154	-663.9944645567716	-2946.997106526988	382.2505834776806	-653.5587797820501	-2898.374765829113	802.8571296400139	-319.27326485815485	-3237.296013128554	115.49453527191773	-571.2977864623826	-3275.9079539903864	376.0756407012048	-510.7750151460235	-2903.4637092560547	407.8535095552676	-418.9319379781913	-2790.3160111161565	933.7452227922739	-566.1063328069597	-3220.2898398006637	128.17842409615542	-491.25866094783095	-2892.2120727717393	411.3647392849602	-499.9044054750937	-2878.7551486162465	864.1053060596129	-794.067234330467	-2912.4844862845275	764.639148478474	-543.9309935533837	-2934.722767051044	997.2099552275193	-276.91060021271846	-2862.3768232855045	822.1545267701184	-353.0673185579573	-2684.478092438472	819.0417723571692	-720.4130846976874	-2833.5154625573964	863.2477229741421	-843.4591481885844	-2941.1230905836755	400.0494903252852	-560.561149896905	-2975.448116530302	999.9167886592984	-337.1603068704454	-3288.5616951353572	391.8854128283603	-433.3604800513787	-2684.414264986642	872.1580160611278	-712.439164039731	-2581.6810699823063	1129.4109696142323	-558.8974399965805	-2927.0769895477733	1057.1844311164052	-599.0501359932481	-2514.9817981359975	1225.931964988367	-540.1116940283849	-2508.3408153784317	1209.0558713635264	-609.9563498173605	-2599.2702450562992	1238.4240108120255	-682.2874389735365	-2619.6266611322335	1278.6348381285675	-509.03472160414884	-2756.82021833483	1185.1338712505753	-614.3036344615041	-2865.9950858906104	1129.8015514925676	-611.4813131458093	-3008.343555058733	939.3329180493803	-569.7714230180363	-2923.369872668088	1042.4605273765558	-596.0555001052211	-2843.3544091744375	1026.3813310768303	-364.9287842474898	-2900.989023886486	1080.9250067950259	-335.02218014573015	-2757.577751892885	1014.7684646942694	-772.2849109363448	-2860.7922028366174	919.7724090809453	-777.5840126432419	-2927.5371874947464	817.006768149354	-507.97586747914056	-2820.788972192864	852.4285708367095	-551.2630978199073	-2754.5529525449365	951.6212404876019	-630.3045187894578	-2896.734139631834	817.6538304884667	-620.9209982538686	-2732.561394161837	1003.2969026791849	-497.89148249453007	-2972.295812218277	570.7457961368175	-489.3357016325656	-2971.233955279591	539.9302045081827	-395.199351926054	-2993.22697372774	499.2412769782065	-571.9477298243736	-3011.996509868138	652.8985451477483	-733.4114811311373	-3151.5753346355245	171.41917585477864	-605.4236483317109	-3048.559169958185	297.7942810107402	-528.0024227217443	-3057.639204098128	401.6400575065875	-411.1859744540889	-3087.563236793846	386.8639942098554	-507.21015236553944	-3312.1487621155884	237.64016242764663	-412.58768244314234	-3311.404779575435	258.73728923538533	-397.2972636103654	-3307.729657919254	282.759839638608	-462.01474658829363	-3301.4251166379795	305.3103190016482	-435.68506897416006	-3312.894284037902	322.80799935340997	-411.73695690165056	-3112.081821032057	21.34507419397284	-557.3132397112834	-3198.9465733351535	73.9650217882797	-573.40304986293	-3120.370727890382	21.548477769857016	-570.532015887356	-3102.479061292677	21.242717025881536	-541.0390425790611	-3150.720728529608	49.99063387936492	-546.8763287256071	-3171.248496834025	72.47508577922837	-519.3041455997287	
92	3.0666666666666664	-2462.481848259806	1415.7330198375191	-598.2894050385277	-2433.67408164995	1202.1474195592195	-543.8617326893294	-2657.8365673716175	1124.7551489220307	-590.2299693719565	-2684.8090927286303	1164.075266541539	-409.20341877919964	-2906.7680598578913	1068.744283512837	-340.8608961189161	-2888.6340962774484	866.4349276416291	-292.1938162635396	-2610.4214050217115	1065.0773956645216	-718.3076063385483	-2615.251246910294	835.3432338219492	-796.3837741443477	-2495.942093546492	930.6207669591167	-654.143987927738	-2955.017057712933	756.6225111555234	-475.91715381587557	-2699.6260056950055	453.71337405120215	-457.23231575583657	-3063.9498066655315	366.18251910595666	-440.70147717135694	-2959.672902198732	765.4230964708617	-638.0490247892933	-2923.2772610773695	376.8023639761857	-599.662273173012	-3216.8884671955348	146.6135272498398	-536.1580300867552	-3127.2357617078947	365.11790596161717	-445.75829315158217	-3280.047134284462	105.4767332548916	-529.3844528199243	-3048.203244965542	194.7816814776388	-378.60279342403635	-3066.2249983780316	263.0889109601727	-343.2366295692525	-3082.2697879665743	36.9575491728641	-513.2159480143058	-3138.1539332093494	26.73799563885508	-584.0550918935769	-2898.604501462118	780.7938318485742	-675.1265068230721	-2895.573875792646	768.0354670808824	-437.61567092112494	-2971.289839597043	863.4166462340994	-510.40212774903927	-2970.20983130702	864.2128198234998	-591.5657201665267	-2913.421228724487	799.7506890662962	-274.2913537194129	-2861.608565942366	786.9132887035313	-269.8538564406804	-2445.7213934773536	935.8978100410797	-597.0068642547093	-2453.9085718977167	988.4406445470083	-602.2953399616765	-2928.908979652712	373.7900591718704	-647.23799113216	-2912.9378984021723	874.1287257099513	-285.8150280740913	-3233.2375790081783	130.0734668042079	-584.4949943311711	-3070.8374475956753	349.59227962290527	-473.0529736240032	-2707.8930455733534	463.6527607807983	-416.48706023576545	-2689.6519588475817	947.2130395145996	-546.2965959619778	-3215.6881469555597	135.68035775120748	-503.7674724527126	-2704.855294998047	466.34202951076315	-498.212261094907	-2644.0270579211806	838.8406248614867	-779.8503462484487	-2809.9049897157024	777.6355491244257	-518.0755101252861	-2891.599921080409	1074.820985001687	-306.129050376979	-2864.6748744895513	871.7228178415132	-307.6134591867527	-2483.9993492880303	904.7958164105457	-659.9128957273311	-2590.3138595081423	852.6690151274523	-817.4082180852973	-2907.4902122601134	389.5884834733681	-556.1802594148695	-2910.8285363053456	1068.2339972487732	-376.0059431145041	-3078.8809435219628	361.6458619996239	-394.3567880190582	-2509.461573250148	951.596281694822	-666.718366313524	-2487.542718235983	1140.9213085501292	-538.829743445226	-2827.0106722400355	1065.936655885888	-591.7210861906103	-2425.2524324413516	1239.3007388909632	-515.1779433898541	-2412.5073144196376	1222.4259784852582	-584.1705919704372	-2498.037327821822	1249.0720437824425	-663.776114808541	-2533.475901419526	1289.172792405335	-492.94334322750643	-2658.322033762898	1195.7247183763893	-608.7592396620556	-2766.650802767112	1138.7313667701192	-606.431474220852	-2907.4560109230038	948.6747160470103	-558.1255242065477	-2823.1875976791516	1051.4929335772522	-587.687863189735	-2774.401823778316	1079.5539685516012	-362.5963113896547	-2830.926163420232	1142.76838089884	-362.9179360091437	-2594.298751954986	1025.1654568383792	-754.0052106638932	-2651.918857720218	897.934508229743	-768.0680365661083	-2827.0898011610775	831.8355442430521	-486.0011390564633	-2719.3809500711905	866.430783501175	-527.5419948962658	-2651.825430249928	961.747872165299	-610.1546246233971	-2792.150454110509	826.0945207287747	-597.5902589997821	-2635.547230209382	1021.8419224596731	-480.4976147606253	-2821.5857934424575	600.8198195436717	-483.4766298342007	-2804.702470319914	575.3924523423645	-389.23872365416435	-2935.576790185963	498.36679534435666	-564.0480664439443	-2937.2446148558033	652.199229536364	-726.4247737813487	-3143.3642294794863	181.6147266465035	-614.6023717047409	-3031.4158643534115	293.94262254426076	-528.4220322314013	-2854.409185766475	421.01121982953396	-393.8639208867632	-2889.7968440084405	400.89655890537824	-487.01721703321954	-3057.8825331387607	214.91577309087765	-363.7054658371017	-3059.799769896916	237.08229882088443	-350.12575604941753	-3072.6425769715443	254.53305391489167	-415.77235156780216	-3067.797839817228	280.50862116678223	-392.46308921605663	-3079.113841598762	297.29385267435043	-367.939084704252	-3110.586414860058	24.236843268472807	-555.975963102728	-3193.9114170581097	78.6387250969996	-581.8720116513305	-3118.0511122538496	23.628677873235524	-569.6650763386144	-3101.9901319614246	25.156534963325857	-539.1732534577442	-3148.4726995515916	55.162217240246854	-550.4340275027296	-3169.598322299557	80.71664744681256	-526.1885270654836	
93	3.1	-2363.126015211577	1430.237574947998	-571.9851564317374	-2336.373173844931	1216.2549672302605	-518.0704399457048	-2552.0363433717216	1139.7631212925244	-577.0081796482062	-2584.8837998283702	1202.3070463180786	-390.8696059618784	-2824.0365472939366	1127.8798966525842	-373.8096355568571	-2851.492237783976	951.6959232331837	-265.0355883779616	-2480.2105809907553	1084.908383172982	-697.479796655927	-2392.184318697555	865.8725110677105	-753.7973280932088	-2330.5227777162168	999.0818259332236	-605.4808692057832	-2834.5923057169457	766.4994316295495	-460.1877373238195	-2531.192392156286	517.1643098940926	-460.50673177076294	-2847.148204210176	319.47127954673226	-418.6003870625057	-2838.688956154844	773.5793034472593	-622.4189416136968	-2907.4354303141295	391.7819622476942	-595.0038935168026	-3204.6428141214283	161.6964839525005	-550.7808962230481	-2907.3654713044475	298.3044493288206	-417.8828462918735	-3269.022628839928	123.06032179900411	-548.1174854339836	-2769.6630861156923	160.97943383310835	-373.72039108189864	-2804.7250077131885	217.38461186698845	-330.9355306018079	-3077.9440854300037	42.58721360148361	-515.174398802136	-3130.490547276534	30.767497987288866	-588.2827084509632	-2779.8914487016546	796.8899927208346	-659.0224063599132	-2777.662751516123	786.1351911702384	-421.4035416062956	-2864.8787145536307	869.8684685145735	-495.63600664461524	-2863.059590200615	870.3012149907374	-576.7891492915802	-2889.949480515121	895.251764640028	-238.26274361519341	-2844.6781570985745	882.8174917594704	-212.4763443164796	-2292.541244991877	1022.3579365483681	-543.5919150435769	-2317.1525877933445	1068.8464481172255	-553.0178060533598	-2911.9277576026884	388.0568271554947	-642.8098752178727	-2875.199225282881	961.8459061257788	-270.08681161659183	-3221.153452925118	149.43239267824822	-600.3219906849625	-2852.344624560437	303.457735246087	-451.552755427888	-2536.4543439399167	521.8169736147998	-419.227530771221	-2583.961891988823	964.6796543412238	-524.1867825387039	-3203.669194175735	148.12475984492306	-519.3964485338232	-2539.5424624249904	524.3747687576667	-500.9550644337268	-2422.40681026355	859.4162518602534	-741.2056243960856	-2703.4146087418853	795.1814097901533	-492.32552204545334	-2820.18963345648	1144.5235472913757	-339.4368266675574	-2823.3608045629044	950.909956555381	-271.9476214100617	-2309.986660737113	978.752077165409	-608.2749205506018	-2372.219352630727	890.1196760413035	-773.2281889081855	-2888.8245181415455	395.326437881213	-551.0860647931851	-2816.801615886218	1116.6325825283336	-406.56747251062677	-2854.5407132624573	307.8312444716748	-371.6833250113446	-2348.6119393167655	1013.927209405749	-620.7537328474571	-2389.9151457983203	1154.539302988401	-517.5996754431951	-2720.1028638544353	1078.2450780843124	-584.1419979179993	-2330.3528426097923	1253.128740385015	-488.4371217635159	-2312.5642277150814	1237.1856805448401	-556.5294499169978	-2392.426600008996	1264.091322122624	-641.7381536837112	-2440.3283076723346	1301.8538805940948	-473.43124959050704	-2552.4029134707835	1209.4794290315106	-599.80623625931	-2659.9569947810173	1150.991079803059	-599.9303784190754	-2800.778405087439	961.9243056998098	-547.928577832985	-2716.3245066125446	1064.1320632088814	-579.0380064720448	-2691.1729891209434	1134.1912861636413	-353.3758573072487	-2739.3612379306715	1193.1858310610698	-390.641158751813	-2446.039917925207	1052.0324333035032	-727.1236739863458	-2452.2906812054102	912.0771555219375	-736.0119878931364	-2723.0396141128294	850.920261894949	-464.58093653831503	-2613.6480235592185	884.6966157014411	-502.2148006240466	-2542.848302687029	975.9734768041742	-586.6533960162598	-2681.9078593202644	839.0739507253554	-573.5474115312844	-2534.539956105506	1043.974217040509	-460.1856705354498	-2676.7512209004126	636.4301360937724	-477.6146412012557	-2649.254605651059	615.071915864987	-384.87768447883906	-2887.1348137052137	507.8247607288183	-556.0611663928983	-2845.1941496851396	660.7356220803689	-713.8351937756929	-3130.4484769406245	201.883676254594	-626.0444473483176	-3016.957351013812	305.02643514809404	-530.8689295579732	-2660.2920313939803	434.1731802456519	-386.4218295272548	-2698.378186806668	409.4321847216088	-477.37099351051097	-2783.566009614637	175.91168862539527	-356.2636697727969	-2791.0101923368256	195.4217330408905	-340.66298106531735	-2816.491250133286	210.95725898302862	-403.0192572316834	-2817.693751721746	235.8079686536308	-378.0689165059219	-2830.90253140179	246.54118932159597	-351.2072560242212	-3104.746526960952	28.564057831289528	-558.4992973931062	-3182.3486543528124	86.38570902685854	-593.2526072426325	-3111.480359898338	27.410449860811813	-572.5281275701234	-3097.032358103545	30.191190872133706	-541.326149725676	-3140.5205892004797	62.35331803658052	-557.5170861744356	-3161.012296709007	91.09982205993558	-536.5196205906024	
